<svg xmlns="http://www.w3.org/2000/svg" width="500" height="500" viewBox="0 0 500 500" fill="none"><g clip-path="url(#clip0_33_2)">
<path d="M124.135 375.866C111.68 363.41 101.456 349.569 93.4642 334.837C85.7221 347.773 79.6559 359.982 76.0142 370.842C73.6566 377.873 71.8969 385.543 72.0047 393.134C72.1141 400.839 74.2476 410.469 81.8887 418.112C89.5298 425.753 99.1615 427.887 106.867 427.996C114.457 428.102 122.127 426.342 129.158 423.986C143.303 419.242 159.738 410.385 177.091 399.068C186.947 392.64 197.427 385.202 208.352 376.876C221.457 381.175 235.457 383.5 250 383.5C323.73 383.5 383.5 323.73 383.5 250C383.5 235.457 381.175 221.457 376.876 208.352C385.202 197.427 392.64 186.947 399.068 177.091C410.385 159.738 419.242 143.303 423.986 129.158C426.342 122.127 428.102 114.457 427.996 106.867C427.887 99.1615 425.753 89.5298 418.112 81.8887C410.469 74.2476 400.839 72.1141 393.134 72.0047C385.543 71.8969 377.873 73.6566 370.842 76.0142C359.982 79.656 347.773 85.7222 334.837 93.4644C349.569 101.456 363.41 111.68 375.864 124.135C369.669 139.064 362.538 152.185 353.247 165.362C353.149 165.499 353.051 165.636 352.955 165.774C333.642 193.097 306.486 225.422 274.002 258.609C268.926 263.794 263.795 268.925 258.61 274.001C225.256 306.649 192.772 333.914 165.362 353.244C152.276 362.474 138.807 369.369 124.135 375.866Z" fill="#9D4EDD"></path>
<path d="M250 116.5C275.452 116.5 299.241 123.623 319.482 135.984C300.545 163.474 271.298 198.462 234.88 234.88C198.462 271.298 163.474 300.545 135.983 319.48C123.623 299.241 116.5 275.452 116.5 250C116.5 176.27 176.27 116.5 250 116.5Z" fill="#9D4EDD"></path>
</g><defs>
<clipPath id="clip0_33_2">
<rect width="356" height="356" fill="white" transform="translate(72 72)"></rect>
</clipPath>
</defs></svg>